<svg width="218" height="56" viewBox="0 0 218 56" fill="none" xmlns="http://www.w3.org/2000/svg">
<path opacity="0.9" d="M217.252 55.1805H-41.0195C-41.0195 55.1805 -19.2156 34.3473 -8.24327 43.9897C-7.96193 20.7634 11.2396 9.99487 23.9 29.7724C24.111 27.1682 24.4626 24.6345 24.955 22.2414C26.5024 13.8659 37.967 12.3175 41.5541 20.0596C41.5541 20.13 41.6245 20.2004 41.6245 20.2004C45.7039 1.54895 67.0155 -1.26636 71.0246 15.4847C74.049 -1.75904 91.2812 -3.80013 101.972 8.6576C124.339 -3.80013 152.684 3.30851 149.097 29.2093C153.176 24.1418 185.601 20.5523 184.616 51.5206C200.653 47.5088 210.781 50.2538 217.252 55.1805Z" fill="#F3F6FB"/>
</svg>