<svg width="1408" height="172" viewBox="0 0 1408 172" fill="none" xmlns="http://www.w3.org/2000/svg">
<path opacity="0.89" d="M1456 194.346V366.994H0.340332C0.340332 366.994 147.341 226.722 221.193 291.685C223.303 135.224 352.58 62.3781 438.107 195.894C439.655 178.228 442.046 161.266 445 145.078C455.48 88.7716 532.849 78.355 556.833 130.368C556.974 130.72 557.185 131.142 557.396 131.494C584.756 5.64969 728.451 -13.0721 755.812 99.8921C776.35 -16.5209 892.614 -30.1751 964.497 53.6506C1115.15 -30.2455 1306.4 17.8259 1282.41 192.304C1299.5 171.049 1391.15 153.735 1456 194.346Z" fill="#F3F6FB"/>
</svg>