<svg width="131" height="28" viewBox="0 0 131 28" fill="none" xmlns="http://www.w3.org/2000/svg">
<path opacity="0.9" d="M130.916 27.6718H0.373535C0.373535 27.6718 11.4162 17.1848 16.9023 22.0412C17.043 10.2873 26.7493 4.86785 33.1498 14.8622C33.2905 13.5249 33.4311 12.258 33.6421 11.0615C34.4158 6.83857 40.2537 6.06435 42.0121 9.9354C42.0121 9.9354 42.012 10.0058 42.0824 10.0058C44.1221 0.574509 54.8834 -0.83314 56.9232 7.61278C58.4705 -1.11467 67.1921 -2.10003 72.5376 4.16402C83.8616 -2.10003 98.1396 1.48948 96.3812 14.5807C98.421 12.0469 114.809 10.2169 114.317 25.8419C122.476 23.7304 127.61 25.1381 130.916 27.6718Z" fill="#F3F6FB"/>
</svg>