<svg width="1440" height="362" viewBox="0 0 1440 362" fill="none" xmlns="http://www.w3.org/2000/svg">
<path d="M1440 205.464V444.131C1440 462.008 1425.51 476.507 1407.65 476.507H-117.646C-135.511 476.507 -150 462.008 -150 444.131V295.131C-133.049 306.533 -116.52 323.636 -101.398 347.285C-80.8604 117.978 66.0701 8.46261 169.111 100.875C218.416 -20.4647 364.151 -24.8988 463.746 48.0177C495.959 71.4551 523.25 103.198 540.904 141.556C541.044 141.908 541.255 142.33 541.466 142.682C568.827 16.8381 712.522 -1.88364 739.882 111.081C760.42 -5.33239 876.684 -18.9866 948.567 64.8391C1099.23 -19.057 1290.47 29.0144 1266.48 203.493C1283.5 182.167 1375.15 164.853 1440 205.464Z" fill="#FBFBFD"/>
</svg>