<svg width="181" height="38" viewBox="0 0 181 38" fill="none" xmlns="http://www.w3.org/2000/svg">
<path opacity="0.9" d="M180.143 37.7251H0.928711C0.928711 37.7251 16.0508 23.2967 23.647 29.983C23.8581 13.8654 37.1514 6.40483 45.9433 20.1294C46.084 18.2995 46.3653 16.5399 46.6467 14.9211C47.7017 9.14976 55.7199 8.02363 58.1817 13.3727C58.1817 13.4431 58.252 13.4431 58.252 13.5135C61.0654 0.563072 75.8358 -1.33726 78.6492 10.2759C80.7593 -1.68917 92.7163 -3.09683 100.101 5.48986C115.575 -3.16721 135.269 1.82996 132.807 19.7775C135.621 16.2584 158.128 13.795 157.425 35.2617C168.608 32.376 175.642 34.3467 180.143 37.7251Z" fill="#F3F6FB"/>
</svg>