<svg width="110" height="24" viewBox="0 0 110 24" fill="none" xmlns="http://www.w3.org/2000/svg">
<path d="M109.042 23.5778H0.795898C0.795898 23.5778 9.93949 14.8504 14.5113 18.9326C14.652 9.21978 22.6702 4.71529 28.0157 12.9501C28.086 11.8239 28.2267 10.7682 28.4377 9.78284C29.0707 6.2637 33.9238 5.63026 35.4009 8.86786V8.93825C37.0889 1.12577 46.0215 -0.0707359 47.7096 6.96753C48.9756 -0.281884 56.2201 -1.12648 60.6512 4.08184C70.0058 -1.12648 81.8925 1.8296 80.4155 12.6685C82.1035 10.5571 95.7486 9.07901 95.2562 22.0294C102.079 20.3402 106.369 21.5367 109.042 23.5778Z" fill="#F3F6FB"/>
</svg>