<svg viewBox="0 0 250 37" xmlns="http://www.w3.org/2000/svg">
<g clip-path="url(#clip0)">
<path fill-rule="evenodd" clip-rule="evenodd" d="M8.9987 5.3269C11.3202 5.3269 13.2739 6.15486 14.8599 7.81077C16.4459 9.46668 17.2389 11.5 17.2389 13.9109C17.2389 16.3217 16.4459 18.355 14.8599 20.011C13.2739 21.6669 11.3202 22.4948 8.9987 22.4948H4.75793V30.8961H0V5.3269H8.9987ZM8.9987 17.7828C10.01 17.7828 10.849 17.4175 11.5156 16.6869C12.1821 15.932 12.5154 15.0067 12.5154 13.9109C12.5154 12.7907 12.1821 11.8653 11.5156 11.1348C10.849 10.4042 10.01 10.0389 8.9987 10.0389H4.75793V17.7828H8.9987Z" fill="#162645"/>
<path d="M41.2163 30.8961L35.0443 11.3041L28.7008 30.8961H23.5636L32.0107 5.3269H37.9064L46.3879 30.8961H41.2163Z" fill="#162645"/>
<path d="M64.2799 20.9241L72.5546 5.3269H67.176L61.9354 15.9929L56.6948 5.3269H51.3163L59.5564 20.9241V30.8961H64.2799V20.9241Z" fill="#162645"/>
<path d="M84.5413 26.0745H93.7468V30.8961H79.7833V5.3269H84.5413V26.0745Z" fill="#162645"/>
<path fill-rule="evenodd" clip-rule="evenodd" d="M134.048 22.02L138.91 30.8961H144.047L138.703 21.2529C140.105 20.571 141.231 19.5604 142.082 18.2211C142.932 16.8574 143.357 15.3841 143.357 13.8013C143.357 11.4635 142.576 9.46669 141.013 7.81077C139.45 6.15486 137.554 5.3269 135.324 5.3269H125.67V30.8961H130.428V22.02H134.048ZM130.428 17.6001V10.0389H135.324C136.22 10.0389 136.99 10.4042 137.634 11.1348C138.278 11.8653 138.599 12.7542 138.599 13.8013C138.599 14.8484 138.278 15.7494 137.634 16.5043C136.99 17.2349 136.22 17.6001 135.324 17.6001H130.428Z" fill="#162645"/>
<path d="M117.499 5.3269V10.1643H101.784V5.3269H117.499Z" fill="#162645"/>
<path d="M117.499 20.5302V15.6928H101.784V20.5302H117.499Z" fill="#162645"/>
<path d="M117.499 26.0587V30.8961H101.784V26.0587H117.499Z" fill="#162645"/>
</g>
<path d="M151.729 0H249.681V36.2231H151.729V18.8662V0Z" fill="#524FA1"/>
<path d="M166.825 25.5693H163.809L160.045 10.6539H162.83L165.403 21.7126L168.208 10.6539H170.474L173.297 21.7126L175.871 10.6539H178.656L174.891 25.5693H171.876L169.341 15.7252L166.825 25.5693Z" fill="white"/>
<path d="M193.252 25.5693H190.371L189.565 22.8845H184.206L183.399 25.5693H180.538L185.243 10.6539H188.527L193.252 25.5693ZM186.895 14.0419L185.051 20.1359H188.739L186.895 14.0419Z" fill="white"/>
<path d="M199.513 10.6539V22.7567H204.641V25.5693H196.862V10.6539H199.513Z" fill="white"/>
<path d="M211.102 10.6539V22.7567H216.23V25.5693H208.451V10.6539H211.102Z" fill="white"/>
<path d="M222.691 19.4114V22.7567H228.357V25.5693H220.04V10.6539H228.261V13.4665H222.691V16.6414H227.781V19.4114H222.691Z" fill="white"/>
<path d="M231.531 10.6539H241.422V13.4665H237.792V25.5693H235.142V13.4665H231.531V10.6539Z" fill="white"/>
<defs>
<clipPath id="clip0">
<rect width="144.047" height="25.5692" fill="white" transform="translate(0 5.3269)"/>
</clipPath>
</defs>
</svg>
