<svg viewBox="0 0 234 209" xmlns="http://www.w3.org/2000/svg">
<path d="M59.5009 191.692C54.9172 193.252 54.5401 195.737 54.5401 195.737C53.9888 194.639 54.424 193.367 55.9036 190.016C57.3541 186.664 56.7159 185.248 56.7159 185.248C50.3915 197.702 38.9323 197.817 38.9323 197.817C44.0962 195.361 45.4887 189.12 40.0347 188.08C34.5807 187.068 27.8792 194.812 27.8792 194.812C22.1061 200.36 11.5753 195.592 11.5753 195.592C17.4644 194.639 18.8569 190.507 18.8569 190.507C10.1827 195.188 0 190.998 0 190.998C5.77312 191.056 6.64344 187.646 14.0992 181.347C20.9747 175.539 26.5738 177.215 27.4151 177.533C18.915 173.661 14.7374 178.573 14.7374 178.573C19.9013 162.161 36.1763 168.749 36.1763 168.749C29.1557 160.571 22.4252 163.49 22.4252 163.49C28.2564 157.364 39.3965 162.247 43.6901 164.386C47.9836 166.524 51.581 165.426 51.552 162.912C51.5229 160.427 47.4614 159.502 42.3556 159.098C37.2497 158.693 34.4357 155.283 34.4357 155.283C43.487 158.751 44.3283 155.428 52.3643 154.908C59.1818 154.474 64.2006 157.768 65.5931 158.78C65.8542 158.953 65.9703 159.069 65.9703 159.069C65.8832 159.387 65.7672 159.704 65.6801 159.993C65.5931 160.253 65.5061 160.485 65.39 160.745C65.1289 161.438 64.8098 162.074 64.4907 162.652C64.4037 162.825 64.2876 162.999 64.2006 163.143C64.1716 163.201 64.1426 163.23 64.1136 163.287C64.0265 163.432 63.9395 163.576 63.8235 163.721C63.7364 163.836 63.6784 163.981 63.5624 164.097C63.5334 164.183 63.4753 164.241 63.4173 164.299C63.3303 164.414 63.2723 164.501 63.1852 164.617C63.0692 164.761 62.9531 164.906 62.8371 165.05C62.8081 165.079 62.8081 165.079 62.7791 165.108C62.663 165.252 62.518 165.397 62.4019 165.541C62.0248 165.946 61.6477 166.293 61.2705 166.639C61.0965 166.784 60.9224 166.928 60.7193 167.073C60.4002 167.333 60.0521 167.564 59.7039 167.795C59.3558 168.026 59.0367 168.2 58.6596 168.402L58.6306 168.431C58.4565 168.518 58.2824 168.604 58.1374 168.691C57.9633 168.778 57.7892 168.864 57.6152 168.922C57.4411 168.98 57.2671 169.067 57.093 169.124C57.064 169.124 57.064 169.124 57.035 169.153C56.8609 169.211 56.7159 169.269 56.5418 169.327C54.0759 170.193 51.697 170.396 49.9854 170.454C45.7498 170.569 44.2413 172.361 44.2413 172.361C46.5621 171.378 49.6953 171.754 53.2056 172.389C56.5128 172.996 58.1084 171.783 58.3114 171.638C54.1339 177.591 44.7925 174.643 38.5262 176.608C32.4339 178.486 30.1131 182.618 29.968 182.85C36.6985 176.377 45.0826 180.971 51.784 180.509C58.4565 180.018 61.2705 175.395 61.2705 175.395C60.8064 178.544 57.6732 180.654 57.6732 180.654C61.1835 180.567 63.2723 179.093 64.4327 177.764C65.4481 176.637 65.7962 175.597 65.7962 175.597C66.3184 177.764 65.6801 180.307 65.6801 180.307C67.1887 178.458 69.3065 178.255 69.3065 178.255C69.3355 178.718 69.3355 179.151 69.3065 179.584C69.0164 185.797 63.7945 190.218 59.5009 191.692Z" fill="#FFCF21"/>
<path d="M65.8252 175.539C65.361 177.504 64.4907 179.035 63.4173 180.22C58.7176 185.392 49.4632 183.948 45.9819 183.196C41.6883 182.272 40.1217 184.872 40.1217 184.872C40.5279 182.358 42.4716 181.174 42.4716 181.174C34.8418 180.047 32.637 183.399 27.9953 186.346C22.2802 189.958 17.5515 188.629 17.5515 188.629C17.5515 188.629 21.3809 187.56 25.6744 181.549C33.1592 171.003 40.5569 172.678 40.5569 172.678C36.4664 171.176 32.8691 172.621 32.666 172.707C38.6422 168.778 42.6747 170.222 52.6834 167.622C62.7211 165.021 65.9412 159.098 65.9412 159.098C65.8542 159.416 65.7382 159.733 65.6511 160.022C65.5641 160.282 65.4771 160.514 65.361 160.774C65.0999 161.467 64.7808 162.103 64.4617 162.681C64.3747 162.854 64.2586 163.027 64.1716 163.172C64.1426 163.23 64.1136 163.259 64.0846 163.316C63.9975 163.461 63.9105 163.605 63.7944 163.75C63.7074 163.865 63.6494 164.01 63.5334 164.125C63.5043 164.212 63.4463 164.27 63.3883 164.328C63.3013 164.443 63.2432 164.53 63.1562 164.646C63.0402 164.79 62.9241 164.935 62.8081 165.079C62.7791 165.108 62.7791 165.108 62.7501 165.137C62.634 165.281 62.489 165.426 62.3729 165.57C61.9958 165.975 61.6187 166.321 61.2415 166.668C61.0674 166.813 60.8934 166.957 60.6903 167.102C60.3712 167.362 60.0231 167.593 59.6749 167.824C59.3268 168.055 59.0077 168.229 58.6306 168.431L58.6015 168.46C58.4275 168.546 58.2534 168.633 58.1084 168.72C57.9343 168.807 57.7602 168.893 57.5862 168.951C57.4121 169.009 57.238 169.095 57.064 169.153C57.035 169.153 57.035 169.153 57.006 169.182C56.8319 169.24 56.6868 169.298 56.5128 169.356C54.0469 170.222 51.668 170.425 49.9564 170.482C45.7208 170.598 44.2122 172.39 44.2122 172.39C46.5331 171.407 49.6663 171.783 53.1765 172.418C56.4838 173.025 58.0793 171.812 58.2824 171.667C54.1049 177.62 44.7635 174.672 38.4972 176.637C32.4049 178.515 30.0841 182.647 29.939 182.879C36.6695 176.406 45.0536 181 51.755 180.538C58.4275 180.047 61.2415 175.424 61.2415 175.424C60.7773 178.573 57.6442 180.682 57.6442 180.682C61.1545 180.596 63.2432 179.122 64.4037 177.793C65.4771 176.55 65.8252 175.539 65.8252 175.539Z" fill="#FF9022"/>
<path d="M65.9702 159.069C65.7091 159.994 65.361 160.832 65.0128 161.612C64.5777 162.045 63.9684 162.565 63.0401 163.23C60.11 165.339 56.3096 163.028 53.4376 160.716C50.5655 158.375 47.3453 158.318 47.3453 158.318C50.5655 157.711 55.2943 159.271 59.4428 159.589C62.1698 159.791 64.4036 159.213 65.622 158.78C65.8541 158.953 65.9702 159.069 65.9702 159.069Z" fill="#FF9022"/>
<path d="M69.3355 179.527C66.7246 180.076 65.4481 183.197 63.4754 185.913C61.2125 188.976 58.1954 189.814 58.0214 189.842C60.3132 188.224 61.9088 185.393 62.402 183.052C62.6341 181.896 63.0692 180.914 63.4464 180.191C63.8235 179.44 64.1716 178.978 64.1716 178.978L64.4907 177.678C65.5061 176.551 65.8542 175.51 65.8542 175.51C66.3764 177.678 65.7382 180.22 65.7382 180.22C67.2467 178.371 69.3645 178.169 69.3645 178.169C69.3645 178.631 69.3645 179.093 69.3355 179.527Z" fill="#FF9022"/>
<path d="M78.8821 152.663L71.0389 154.533L76.728 178.194L84.5712 176.323L78.8821 152.663Z" fill="#48AD96"/>
<path d="M78.8843 152.668L71.0411 154.539L73.8857 166.37L81.7288 164.499L78.8843 152.668Z" fill="#48AD96"/>
<path d="M115.52 171.783C115.491 172.072 115.462 172.361 115.404 172.65C115.201 174.123 114.911 175.568 114.534 176.984C114.447 177.273 114.389 177.533 114.302 177.822C114.215 178.111 114.157 178.371 114.07 178.66C114.041 178.804 113.983 178.949 113.954 179.093C113.925 179.238 113.867 179.353 113.838 179.498C113.751 179.787 113.664 180.047 113.577 180.307C113.49 180.567 113.403 180.856 113.287 181.116C113.2 181.376 113.084 181.665 112.967 181.925C112.909 182.07 112.88 182.214 112.822 182.33C112.677 182.734 112.503 183.11 112.329 183.514C112.213 183.774 112.097 184.034 111.981 184.294C111.865 184.555 111.749 184.786 111.633 185.046C111.372 185.566 111.111 186.086 110.85 186.606C110.705 186.866 110.56 187.097 110.444 187.357C110.298 187.617 110.153 187.849 110.008 188.109C109.863 188.34 109.718 188.6 109.573 188.831C109.428 189.062 109.283 189.322 109.109 189.553C108.993 189.756 108.848 189.958 108.732 190.16C108.384 190.68 108.036 191.172 107.659 191.692C107.484 191.923 107.31 192.154 107.136 192.385C106.962 192.616 106.788 192.848 106.614 193.05C106.44 193.281 106.266 193.483 106.063 193.714C105.889 193.946 105.686 194.148 105.512 194.35C104.351 195.679 103.104 196.951 101.769 198.135C101.595 198.28 101.421 198.453 101.247 198.598C100.812 198.973 100.377 199.349 99.9127 199.696C99.6226 199.927 99.3325 200.158 99.0424 200.36C98.8683 200.476 98.6942 200.62 98.5202 200.736C98.3461 200.852 98.201 200.967 98.027 201.083C97.8529 201.198 97.6789 201.314 97.5048 201.458C96.4024 202.239 95.242 202.932 94.0235 203.597C93.7914 203.741 93.5303 203.857 93.2983 204.001C93.0372 204.146 92.7761 204.29 92.515 204.406C89.6139 205.879 86.4807 207.035 83.1735 207.815C77.8356 209.087 72.5266 209.289 67.4207 208.567C69.8576 206.891 72.0625 204.984 74.0642 202.874C74.6444 202.267 75.1956 201.661 75.7178 201.025C76.269 200.389 76.7622 199.754 77.2554 199.089C81.2008 193.83 83.8988 187.704 85.0592 181.145C85.2043 180.365 85.3203 179.585 85.4073 178.804C85.5814 177.446 85.6684 176.059 85.6975 174.672C85.6975 174.239 85.7265 173.805 85.6975 173.343C85.6975 172.014 85.6104 170.656 85.4654 169.298C85.2913 167.477 84.9722 165.628 84.537 163.779C84.537 163.721 84.508 163.692 84.508 163.634C84.0729 161.843 83.5217 160.109 82.8834 158.433C81.4329 154.677 79.4892 151.209 77.1103 148.089C70.2928 139.102 60.1101 133.121 48.8829 131.589C53.1185 128.642 57.9633 126.446 63.2722 125.146C77.2554 121.823 91.2675 125.753 101.334 134.508C107.455 139.825 112.097 146.962 114.36 155.312C114.476 155.688 114.563 156.064 114.65 156.41C114.65 156.468 114.679 156.497 114.679 156.555C114.766 156.96 114.882 157.393 114.969 157.826C115.811 161.814 116.043 165.801 115.723 169.673C115.694 169.876 115.694 170.049 115.665 170.251C115.636 170.569 115.607 170.858 115.578 171.176C115.578 171.436 115.549 171.609 115.52 171.783Z" fill="#48AD96"/>
<path d="M115.84 167.506C115.811 169.24 115.666 170.945 115.404 172.65C115.201 174.123 114.911 175.568 114.534 176.984C114.447 177.273 114.389 177.533 114.302 177.822C114.215 178.111 114.157 178.371 114.07 178.66C114.012 178.804 113.983 178.949 113.925 179.093C113.896 179.238 113.838 179.353 113.809 179.498C113.722 179.787 113.635 180.047 113.548 180.307C113.461 180.567 113.374 180.856 113.258 181.116C113.171 181.376 113.055 181.665 112.939 181.925C112.881 182.069 112.823 182.214 112.764 182.33C112.619 182.734 112.445 183.11 112.271 183.514C112.155 183.774 112.039 184.034 111.923 184.294C111.807 184.554 111.691 184.786 111.575 185.046C111.314 185.566 111.053 186.086 110.792 186.606C110.647 186.866 110.502 187.097 110.386 187.357C110.241 187.617 110.096 187.849 109.95 188.109C109.805 188.34 109.66 188.6 109.515 188.831C109.37 189.062 109.225 189.322 109.051 189.553C108.935 189.756 108.79 189.958 108.674 190.16C108.326 190.68 107.978 191.171 107.601 191.692C107.427 191.923 107.252 192.154 107.078 192.385C106.904 192.616 106.73 192.847 106.556 193.05C106.382 193.281 106.208 193.483 106.005 193.714C105.831 193.945 105.628 194.148 105.454 194.35C104.293 195.679 103.046 196.951 101.711 198.135C101.537 198.28 101.363 198.453 101.189 198.598C100.754 198.973 100.319 199.349 99.8547 199.696C99.5646 199.927 99.2745 200.158 98.9844 200.36C98.8104 200.476 98.6363 200.62 98.4622 200.736C98.2882 200.851 98.1431 200.967 97.9691 201.083C97.795 201.198 97.6209 201.314 97.4469 201.458C96.3445 202.238 95.184 202.932 93.9656 203.596C93.7335 203.741 93.4724 203.856 93.2403 204.001C92.9792 204.145 92.7181 204.29 92.457 204.406C89.556 205.879 86.4228 207.035 83.1156 207.815C77.7776 209.087 72.4687 209.289 67.3628 208.566C69.7997 206.89 72.0045 204.983 74.0062 202.874C74.5865 202.267 75.1377 201.66 75.6598 201.025C76.182 200.389 76.7042 199.753 77.1974 199.089C81.1139 193.83 83.8118 187.704 84.9723 181.145C85.1173 180.365 85.2334 179.584 85.3204 178.804C85.4945 177.446 85.5815 176.059 85.6105 174.701H85.6395L89.9331 173.69L115.84 167.506Z" fill="#48AD96"/>
<path d="M216.594 133.352C214.447 137.455 210.676 141.645 205.773 145.777C188.859 159.965 158.398 173.199 134.319 178.92C114.766 183.601 95.8803 183.745 80.3886 180.22C80.5627 177.764 80.5627 175.279 80.3596 172.765C80.1565 170.222 79.7504 167.651 79.1412 165.108C77.9227 160.022 75.95 155.312 73.368 151.065C85.6105 140.923 102.495 132.543 122.048 127.862C153.089 120.465 199.767 121.36 216.594 133.352Z" fill="#EFF1F3"/>
<path d="M216.593 133.352C211.662 142.772 201.595 149.129 189.904 156.699C190.426 153.665 191.209 149.62 191.093 145.026C190.948 138.524 189.004 130.983 182.013 123.817C195.909 125.29 207.919 127.168 216.593 133.352Z" fill="#48AD96"/>
<path d="M117.203 156.035C110.937 154.099 99.2165 154.532 86.3068 157.624C73.397 160.716 62.7501 165.599 58.0214 170.165C64.2877 172.101 76.008 171.667 88.9177 168.575C101.856 165.484 112.503 160.6 117.203 156.035Z" fill="#48AD96"/>
<path d="M116.913 155.948L58.2824 169.933C58.1953 170.02 58.1083 170.078 58.0503 170.136C64.3166 172.072 76.0369 171.638 88.9466 168.546C101.856 165.455 112.503 160.571 117.232 156.006C117.116 156.006 117 155.977 116.913 155.948Z" fill="#409481"/>
<path d="M129.91 153.001C128.227 146.037 132.55 139.015 139.541 137.368C146.533 135.692 153.582 139.998 155.236 146.962C156.919 153.925 152.596 160.947 145.605 162.594C138.642 164.27 131.592 159.965 129.91 153.001Z" fill="#F95A39"/>
<path d="M152.596 147.597C151.262 142.107 145.721 138.698 140.209 140.027C134.697 141.356 131.273 146.875 132.608 152.394C133.942 157.884 139.483 161.294 145.024 159.965C150.507 158.635 153.902 153.087 152.596 147.597Z" fill="#E5462C"/>
<path d="M151 153.579C150.826 153.983 150.623 154.359 150.391 154.735C150.072 155.284 149.666 155.775 149.231 156.237C148.186 157.335 146.881 158.173 145.343 158.664C145.14 158.722 144.937 158.78 144.705 158.838C139.802 160.022 134.842 156.988 133.681 152.105C133.101 149.678 133.536 147.251 134.755 145.286C135.509 144.014 136.582 142.945 137.888 142.165C138.468 141.818 139.106 141.529 139.773 141.298C140.005 141.212 140.238 141.154 140.47 141.096C140.731 141.038 140.992 140.98 141.224 140.952C145.866 140.258 150.391 143.205 151.494 147.858C151.958 149.851 151.755 151.816 151 153.579Z" fill="#2D3C50"/>
<path d="M202.929 143.696L200.29 141.76L191.093 145.055C191.093 145.055 137.743 180.48 80.3304 172.823C80.4755 174.643 80.5045 176.435 80.4755 178.226C80.4755 178.226 113.2 183.832 147.49 172.505C173.774 163.808 189.527 153.405 195.445 149.013C197.417 146.528 200.231 145.199 202.929 143.696Z" fill="#E7E6E9"/>
<path d="M216.594 133.352C207.6 142.743 190.629 152.307 190.629 152.307C190.948 150.111 191.151 147.655 191.093 145.026C205.221 139.189 216.245 133.525 216.594 133.352Z" fill="#409481"/>
<path d="M149.231 156.266C148.186 157.364 146.881 158.202 145.343 158.693L134.755 145.315C135.509 144.043 136.582 142.974 137.888 142.194L149.231 156.266Z" fill="#202E3D"/>
<path d="M151 153.579C150.826 153.983 150.623 154.359 150.391 154.734L139.744 141.298C139.976 141.211 140.208 141.154 140.441 141.096C140.702 141.038 140.963 140.98 141.195 140.951L151 153.579Z" fill="#202E3D"/>
<path d="M186.248 198.338C186.19 198.395 186.132 198.453 186.045 198.511C183.115 200.649 173.861 201.632 173.861 201.632L173.136 201.112L172.265 201.978C170.873 202.123 167.247 202.123 167.247 202.123L166.782 196.315C166.782 196.315 165.912 190.594 170.873 194.523C171.424 194.957 172.091 195.332 172.817 195.65C178.387 197.962 187.989 196.719 186.248 198.338Z" fill="#594D73"/>
<path opacity="0.3" d="M186.249 198.338C186.191 198.395 186.132 198.453 186.045 198.511C183.115 200.649 173.861 201.632 173.861 201.632L173.136 201.112L172.265 201.978C170.873 202.123 167.247 202.123 167.247 202.123L166.782 196.315C166.782 196.315 165.912 190.594 170.873 194.523C171.424 194.957 172.091 195.332 172.817 195.65C171.482 196.344 170.235 197.297 170.206 198.338C170.119 200.216 181.636 199.349 186.249 198.338Z" fill="black"/>
<path d="M62.605 131.011C62.7791 131.618 62.8951 132.109 62.8371 132.456C62.7791 132.947 62.3729 133.179 61.3285 133.034C59.5589 132.774 58.1664 131.82 57.3251 129.393C57.3251 130.954 57.7312 132.052 55.2363 133.005C52.7414 133.959 48.8249 135.375 48.3608 134.797C47.8966 134.219 46.9973 132.572 46.6491 130.202C46.272 127.833 47.2293 123.123 48.2157 121.794C49.2021 120.465 52.7704 118.066 53.3796 117.113C54.0178 116.159 54.511 115.177 54.511 115.177L54.6851 115.321L62.576 116.419C62.576 116.419 60.5743 118.76 61.0384 120.031C61.1255 120.291 61.2995 120.609 61.5316 120.956C62.3439 122.198 63.7074 123.845 63.8235 125.203C63.9685 126.966 62.1989 129.538 62.605 131.011Z" fill="#FFCBA9"/>
<path d="M57.3251 129.364C57.064 128.815 56.919 128.18 56.8899 127.573C56.8319 126.966 56.8899 126.33 57.122 125.752C57.093 126.07 57.093 126.359 57.093 126.648C57.093 126.937 57.093 127.255 57.122 127.544C57.151 128.151 57.2381 128.758 57.3251 129.364Z" fill="#DD8F6C"/>
<path d="M55.1782 126.793C55.3233 126.475 55.5554 126.215 55.8455 126.013C56.1356 125.81 56.4837 125.695 56.8318 125.637C57.18 125.608 57.5571 125.608 57.8762 125.695C58.0503 125.724 58.1953 125.81 58.3694 125.868C58.5145 125.955 58.6885 126.013 58.8336 126.099C58.6595 126.07 58.5145 126.013 58.3404 125.955C58.1663 125.926 58.0213 125.868 57.8472 125.868C57.5281 125.81 57.18 125.81 56.8608 125.839C56.2226 125.955 55.6134 126.273 55.1782 126.793Z" fill="#DD8F6C"/>
<path d="M62.8371 132.456C62.7791 132.947 62.3729 133.179 61.3285 133.034C59.5589 132.774 58.1664 131.82 57.3251 129.393C57.3251 130.954 57.7312 132.052 55.2363 133.005C52.7414 133.959 48.8249 135.375 48.3608 134.797C47.8966 134.219 46.9973 132.572 46.6491 130.202C46.272 127.833 47.2293 123.123 48.2157 121.794C49.2021 120.465 52.7704 118.066 53.3796 117.113C54.0178 116.159 54.511 115.177 54.511 115.177L54.6851 115.321L62.576 116.419C62.576 116.419 60.5743 118.76 61.0384 120.031C61.1255 120.291 61.2995 120.609 61.5316 120.956C58.8916 121.129 54.1339 121.736 52.8864 123.73C51.1458 126.533 51.4069 131.329 51.4069 131.329L54.8882 129.74L54.366 126.013C54.366 126.013 57.4411 124.539 59.2688 125.492C60.8354 126.301 59.5299 131.358 62.8371 132.456Z" fill="#FFB183"/>
<path d="M172.149 194.408C172.149 194.408 172.091 194.437 172.004 194.523C171.424 195.015 169.103 196.835 165.883 196.922C147.2 178.862 139.483 149.36 139.483 149.36L97.9689 133.468C94.8648 123.99 102.146 115.87 102.146 115.87L104.757 114.859L124.485 118.269L128.082 119.945L138.932 125.03L132.143 126.128L124.398 127.4L123.991 127.457C127.038 128.844 134.261 132.225 151.465 140.171C151.726 140.287 151.958 140.431 152.161 140.605C152.799 141.067 153.263 141.732 153.524 142.483C154.018 144.043 154.569 145.748 155.178 147.511C161.386 166.09 172.149 194.408 172.149 194.408Z" fill="#7B77E6"/>
<path opacity="0.3" d="M172.033 194.552C171.453 195.044 169.132 196.864 165.912 196.951C147.229 178.891 139.512 149.389 139.512 149.389L97.9979 133.496C94.8648 123.99 102.146 115.87 102.146 115.87L104.757 114.859L124.485 118.269L128.082 119.945C127.212 120.754 126.022 121.476 124.34 121.852L132.143 126.128L136.002 128.238L130.171 130.029L124.398 127.371L117.145 124.019C117.145 124.019 110.124 124.626 109.515 129.422C108.906 134.219 137.83 145.026 143.255 145.026C147.229 145.026 150.652 142.136 152.219 140.576C152.857 141.038 153.321 141.703 153.582 142.454C154.076 144.014 154.627 145.719 155.236 147.482C152.538 148.58 148.505 151.325 148.912 157.797C149.318 165.83 166.289 187.444 172.033 194.552Z" fill="black"/>
<path d="M205.134 53.8609L195.358 58.1952L142.355 81.6582L142.239 81.716C142.239 81.716 139.599 92.5518 134.754 101.191C131.708 106.624 128.43 111.969 126.399 115.177C125.21 117.084 124.456 118.24 124.456 118.24C124.456 118.24 121.816 120.205 111.778 119.396C101.74 118.586 100.464 114.975 101.479 110.091C102.495 105.208 103.858 84.8656 103.858 84.8656C103.858 84.8656 103.8 84.8945 103.713 84.9234C102.117 85.7036 88.2503 92.3784 77.6034 100.527C74.7894 102.752 71.4241 106.364 68.5231 109.744C64.8387 114.05 61.8796 117.951 61.8796 117.951C61.8796 117.951 59.4427 118.009 56.6867 116.997C55.6423 116.622 54.5399 116.073 53.5245 115.321C54.685 111.998 56.5997 108.502 59.0366 104.977C71.6562 86.7438 98.0849 67.5573 102.611 64.321C103.046 64.0032 103.568 63.8587 104.09 63.8587H111.372L137.772 63.3963L143.371 63.8587L153.379 60.7091L191.528 48.6597L199.68 46.088L202.175 45.3079L205.134 53.8609Z" fill="#DBD8E1"/>
<path d="M125.123 84.5188C121.758 94.3143 104.409 109.253 94.4877 114.628C88.5115 115.292 83.4636 114.541 79.17 112.576L84.595 102.434C84.595 102.434 113.432 93.6208 120.858 81.0802L123.063 80.7046C123.063 80.7046 124.02 81.3403 124.717 81.8893C125.152 82.236 125.5 82.525 125.529 82.6984C125.558 83.1029 125.152 84.4321 125.123 84.5188Z" fill="#F27268"/>
<path d="M125.123 84.5188C121.758 94.3143 104.409 109.253 94.4877 114.628C88.5115 115.292 83.4636 114.541 79.17 112.576L84.595 102.434C101.682 111.969 116.101 95.4123 120.858 81.0802L123.063 80.7046C123.063 80.7046 124.021 81.3403 124.717 81.8893L125.123 84.5188Z" fill="#FF5F55"/>
<path d="M131.505 79.2325L129.387 80.9662L125.094 84.5204L120.829 81.0818L120.742 72.6155C120.742 72.6155 122.164 69.1191 126.864 71.5752C131.563 74.0313 131.505 79.2325 131.505 79.2325Z" fill="#E55B4C"/>
<path opacity="0.3" d="M131.505 79.231L129.387 80.9647C129.387 80.9647 129.794 77.035 126.515 76.3993C123.208 75.7636 122.048 80.5313 125.094 84.49L120.829 81.0514L120.742 72.5851C120.742 72.5851 122.164 69.0887 126.864 71.5448C131.563 74.0298 131.505 79.231 131.505 79.231Z" fill="black"/>
<path d="M117.58 85.1836C118.886 83.8833 120.017 82.4963 120.829 81.0804C119.814 84.1722 118.334 87.3507 116.478 90.3559L119.466 84.1434C118.828 84.519 118.189 84.8657 117.58 85.1836Z" fill="#FF1200"/>
<path d="M125.123 84.5189L120.858 81.0804L123.063 80.7047C123.063 80.7047 123.237 80.8203 123.498 80.9937C123.846 81.2248 124.34 81.5716 124.746 81.8894C125.181 82.2362 125.529 82.5251 125.558 82.6985C125.558 83.103 125.152 84.4322 125.123 84.5189Z" fill="#FF1200"/>
<path opacity="0.3" d="M125.123 84.5189L120.858 81.0804L123.063 80.7047C123.063 80.7047 123.237 80.8203 123.498 80.9937C123.846 81.2248 124.34 81.5716 124.746 81.8894L125.123 84.5189Z" fill="#FF0F00"/>
<path d="M131.505 79.231L129.388 80.9648L125.094 84.5189L120.829 81.0803L120.742 72.614C120.742 72.614 122.164 69.1177 126.835 71.5738C131.563 74.0299 131.505 79.231 131.505 79.231Z" fill="#FF5F55"/>
<path opacity="0.3" d="M129.419 80.9936C129.419 80.9936 129.825 77.0639 126.547 76.4282C124.226 75.9948 122.949 78.2486 123.501 80.9936C123.704 82.1206 124.255 83.3631 125.154 84.5189L120.89 81.0803L120.803 72.614C120.803 72.614 122.224 69.1177 126.895 71.5738C131.566 74.0299 131.537 79.231 131.537 79.231L129.419 80.9936Z" fill="#FF0F00"/>
<path d="M137.743 65.6791C137.743 65.6791 137.685 66.3726 137.54 67.4995C137.104 70.9091 135.944 78.1907 133.362 81.716C131.128 78.1041 126.806 75.0701 126.806 75.0701C126.806 75.0701 125.036 75.2145 121.526 76.3126C118.015 77.4106 114.737 80.2423 114.737 80.2423C113.2 75.7635 112.474 66.7193 112.474 66.7193L137.743 65.6791Z" fill="#DBD8E1"/>
<path d="M137.743 65.6791C137.743 65.6791 137.685 66.3726 137.54 67.4995C136.147 70.4179 133.623 76.3414 133.362 81.716C130.983 76.2837 131.418 75.8502 126.806 75.0701C119.408 73.2785 115.898 75.648 114.737 80.2423C113.2 75.7635 112.474 66.7193 112.474 66.7193L137.743 65.6791Z" fill="#B1A9BC"/>
<path d="M143.545 73.0763C143.632 73.7987 143.632 74.55 143.603 75.2723C143.574 75.9947 143.487 76.746 143.4 77.4684C143.284 78.1908 143.139 78.9132 142.964 79.6355C142.79 80.3579 142.558 81.0514 142.297 81.7449L142.703 79.5778C142.848 78.8554 142.964 78.133 143.052 77.4106C143.168 76.6882 143.255 75.9658 143.342 75.2434C143.4 74.5211 143.487 73.7987 143.545 73.0763Z" fill="#6CACB7"/>
<path d="M205.134 53.8609L195.358 58.1952C194.284 54.4099 192.66 50.9425 191.499 48.6887L202.146 45.3368L205.134 53.8609Z" fill="#DBD8E1"/>
<path d="M218.044 37.824C212.213 39.9334 212.184 36.5237 212.184 36.5237C212.184 36.5237 212.938 35.4835 214.157 34.1254C215.317 32.8251 216.855 31.2359 218.537 29.9067C221.989 27.2194 230.519 22.7985 232.085 21.2381C232.897 20.429 233.565 21.7871 233.855 23.7231C234.116 25.4857 234.029 27.7107 233.449 29.1265C232.23 32.045 224.803 35.3968 218.044 37.824Z" fill="#FFCBA9"/>
<path d="M217.029 36.0036C217.029 36.0036 215.375 35.2235 213.982 34.3277C215.143 33.0274 216.883 31.207 218.537 29.9067C221.989 27.2195 230.518 22.7985 232.085 21.2381C232.897 20.429 233.565 21.7871 233.855 23.7231C230.664 25.1968 221.235 29.9934 217.029 36.0036Z" fill="#FFB98E"/>
<path d="M215.404 55.5369C214.389 54.6411 213.199 53.5431 213.199 53.5431C213.199 53.5431 212.561 55.8836 210.008 56.9527C207.716 57.9063 204.757 57.2417 203.742 53.8031C203.452 52.7629 203.104 51.7516 202.668 50.7402C200.754 46.377 199.361 40.6847 206.933 35.7147C211.691 32.1316 215.926 35.2812 216.449 35.4546C216.913 35.628 218.421 37.5062 218.421 37.6506C218.479 37.5929 219.785 36.4948 221.816 36.5526C223.904 36.6104 224.833 36.986 225.239 37.6506C225.616 38.3152 225.877 42.794 224.833 43.892C224.223 44.3544 223.15 44.5566 223.15 44.5566C223.15 44.5566 224.949 45.9725 225.529 46.666C226.109 47.3884 223.556 49.7578 221.845 51.087C220.568 52.0983 220.423 52.0983 219.959 51.6071C220.684 53.283 218.798 55.0167 218.044 55.8547C217.29 56.6349 216.449 56.4037 215.404 55.5369Z" fill="#FFCBA9"/>
<path d="M212.735 40.8291C212.735 40.8291 210.095 41.0025 208.703 43.1407C207.31 45.2501 207.31 50.6824 209.022 52.0405C210.733 53.3986 212.706 53.8898 213.518 52.1272C214.331 50.3935 215.201 46.8393 214.07 46.9549C212.967 47.0705 211.024 45.828 210.733 45.4813C210.443 45.1345 209.805 41.7249 212.735 40.8291Z" fill="#FFB98E"/>
<path d="M213.896 41.2337C213.751 41.0314 213.518 40.9447 213.286 40.887C213.054 40.8581 212.822 40.8581 212.59 40.9159C212.126 41.0314 211.691 41.2337 211.372 41.5804C211.053 41.9272 210.849 42.3606 210.733 42.794C210.617 43.2564 210.559 43.7187 210.559 44.181C210.559 44.4122 210.559 44.6433 210.617 44.8745C210.646 44.9901 210.646 45.1057 210.675 45.2213C210.704 45.3368 210.733 45.3946 210.791 45.4813C210.936 45.6258 211.14 45.7414 211.343 45.8569C211.546 45.9725 211.778 46.0592 211.981 46.1459C212.851 46.4926 213.78 46.7238 214.708 46.9261C214.94 46.9839 215.172 47.0128 215.404 47.0705C215.52 47.0994 215.636 47.0994 215.752 47.1283L215.926 47.1572H216.013C216.042 47.1572 216.129 47.0706 216.187 46.9839C216.245 46.8972 216.303 46.7816 216.333 46.6949C216.42 46.4926 216.507 46.2615 216.565 46.0303C216.855 45.1346 217.058 44.2099 217.261 43.2564C217.464 42.3317 217.609 41.3782 217.783 40.4535L218.276 37.6218L218.305 37.7085C218.073 37.3328 217.754 36.9861 217.435 36.6393C217.116 36.3215 216.768 36.0037 216.391 35.7147C216.013 35.4257 215.636 35.1657 215.23 34.9345C214.824 34.7034 214.418 34.5011 213.983 34.2988C214.418 34.4722 214.853 34.6456 215.288 34.8478C215.723 35.0501 216.1 35.3102 216.507 35.5702C216.884 35.8303 217.261 36.1481 217.609 36.466C217.957 36.7838 218.276 37.1306 218.537 37.5351L218.566 37.564V37.6218C218.45 38.5753 218.305 39.5289 218.16 40.4535C218.015 41.4071 217.841 42.3317 217.667 43.2853C217.493 44.2388 217.29 45.1635 217 46.0881C216.913 46.3193 216.826 46.5504 216.739 46.7816C216.681 46.8972 216.623 47.0128 216.565 47.1283C216.478 47.2439 216.42 47.3595 216.216 47.4462C216.158 47.4751 216.1 47.4751 216.042 47.4751H215.955L215.752 47.4462C215.636 47.4173 215.52 47.4173 215.375 47.3884C215.143 47.3595 214.882 47.3017 214.65 47.2439C213.693 47.0417 212.764 46.7816 211.865 46.406C211.633 46.3193 211.401 46.2037 211.198 46.0881C210.995 45.9725 210.762 45.8281 210.588 45.6258C210.53 45.568 210.501 45.5102 210.472 45.4524C210.443 45.3657 210.443 45.3368 210.414 45.2501C210.385 45.1346 210.356 44.9901 210.356 44.8745C210.327 44.6145 210.327 44.3833 210.327 44.1521C210.327 43.6609 210.414 43.1697 210.559 42.7074C210.704 42.245 210.936 41.7827 211.285 41.436C211.459 41.2626 211.662 41.1181 211.894 41.0314C212.126 40.9447 212.358 40.8581 212.59 40.8003C212.822 40.7425 213.083 40.7425 213.315 40.8003C213.547 40.9159 213.78 41.0603 213.896 41.2337Z" fill="#DD8F6C"/>
<path d="M223.15 44.5278C222.657 44.47 222.193 44.3833 221.7 44.2677C221.235 44.1521 220.742 44.0365 220.278 43.8921C219.814 43.7476 219.35 43.6031 218.885 43.4297C218.421 43.2564 217.986 43.083 217.522 42.8807C218.015 42.9385 218.479 43.0252 218.973 43.1408C219.437 43.2564 219.93 43.372 220.394 43.5164C220.858 43.6609 221.322 43.8054 221.787 43.9788C222.251 44.1232 222.715 44.2966 223.15 44.5278Z" fill="#DD8F6C"/>
<path d="M216.333 47.1284C216.71 47.4463 217.029 47.793 217.348 48.1398C217.667 48.4865 217.986 48.8621 218.305 49.2089C218.595 49.5845 218.914 49.9602 219.176 50.3358C219.466 50.7114 219.727 51.116 219.959 51.5494C219.582 51.2316 219.263 50.8848 218.943 50.5381C218.624 50.1913 218.305 49.8157 217.986 49.4689C217.696 49.0933 217.377 48.7177 217.116 48.342C216.826 47.9375 216.565 47.533 216.333 47.1284Z" fill="#DD8F6C"/>
<path d="M213.199 53.5143C213.344 52.4163 213.576 51.3471 213.809 50.3069C213.925 49.7868 214.07 49.2378 214.186 48.7177C214.331 48.1975 214.476 47.6485 214.65 47.1284C214.621 48.2264 214.418 49.3245 214.186 50.3936C214.07 50.9137 213.925 51.4627 213.751 51.9828C213.605 52.5029 213.431 53.0231 213.199 53.5143Z" fill="#DD8F6C"/>
<path d="M68.523 109.773C64.8097 114.079 61.8796 117.98 61.8796 117.98C61.8796 117.98 57.2669 118.095 53.5245 115.35C54.685 112.027 56.5997 108.531 59.0366 105.006C61.3574 106.739 64.8967 108.964 68.523 109.773Z" fill="#DBD8E1"/>
<path d="M103.858 84.8944C103.829 83.5653 103.916 82.2361 104.032 80.9069C104.148 79.5777 104.293 78.2485 104.554 76.9482C104.583 78.2774 104.496 79.6066 104.38 80.9358C104.264 82.265 104.119 83.5942 103.858 84.8944Z" fill="#6CACB7"/>
<path d="M113.983 123.007C115.724 123.585 117.406 124.279 119.06 125.03C120.713 125.781 122.367 126.562 123.963 127.457C122.222 126.879 120.539 126.186 118.886 125.435C117.232 124.712 115.578 123.932 113.983 123.007Z" fill="#1C1616"/>
<path d="M125.123 84.5188C125.181 87.5239 125.007 90.529 124.688 93.5053C124.398 96.4815 123.905 99.4577 123.324 102.405C123.15 103.127 123.034 103.879 122.831 104.601L122.28 106.797C122.106 107.519 121.874 108.242 121.671 108.964L121.352 110.033C121.236 110.38 121.12 110.756 121.003 111.103C120.104 113.963 118.944 116.737 117.667 119.453L118.509 117.373L118.944 116.333L119.321 115.263L120.075 113.154L120.742 111.016C120.858 110.669 120.974 110.293 121.061 109.947L121.352 108.878C121.555 108.155 121.758 107.433 121.932 106.71L122.454 104.514C122.628 103.792 122.773 103.041 122.918 102.318C123.527 99.3999 123.992 96.4237 124.369 93.4475L124.63 91.2225C124.688 90.4712 124.775 89.72 124.833 88.9976C124.978 87.5239 125.065 86.0214 125.123 84.5188Z" fill="#6CACB7"/>
<path opacity="0.1" d="M103.104 94.9212C103.539 89.5467 103.858 84.8946 103.858 84.8946C103.858 84.8946 103.8 84.9235 103.713 84.9523L104.641 75.0413L110.937 88.1019C110.937 88.1019 113.316 87.3796 117.58 85.1257C113.838 88.9399 108.442 92.234 103.104 94.9212Z" fill="black"/>
<path opacity="0.1" d="M126.429 115.206C125.239 117.113 124.485 118.269 124.485 118.269C124.485 118.269 121.845 120.233 111.807 119.424C101.769 118.615 100.493 115.003 101.508 110.12C105.831 106.999 110.56 103.041 114.679 98.9087C115.056 104.399 117.203 112.952 126.429 115.206Z" fill="black"/>
<path opacity="0.1" d="M105.454 71.7472C105.454 71.7472 66.4923 94.4011 56.6867 117.026C55.6423 116.651 54.5399 116.102 53.5245 115.35C54.685 112.027 56.5997 108.531 59.0366 105.006C71.6562 86.7727 98.0849 67.5862 102.611 64.35C103.046 64.0321 103.568 63.8876 104.09 63.8876H111.372L137.771 63.4253L143.371 63.8876L153.379 60.738C141.195 74.1744 115.665 97.6663 105.454 71.7472Z" fill="black"/>
<path opacity="0.1" d="M205.134 53.8609L195.387 58.1952L142.355 81.6871L144.125 71.6027L145.605 74.55L200.87 51.7516L199.68 46.117L202.175 45.3368L205.134 53.8609Z" fill="black"/>
<path d="M142.994 55.7391C145.111 55.5657 145.808 54.8434 145.837 54.0632C145.924 52.8785 144.618 51.5204 144.618 51.5204C147.722 49.3821 151.813 40.5113 147.577 38.7775C145.546 37.9396 143.748 39.3555 142.413 41.0314C140.963 42.8518 140.034 45.0189 140.034 45.0189L137.859 47.6773C137.859 47.7062 137.714 56.1436 142.994 55.7391Z" fill="#FFCBA9"/>
<path d="M141.137 52.3295C140.992 51.3182 141.021 50.3068 141.195 49.2955C141.34 48.2842 141.601 47.3017 142.036 46.3482C142.471 45.4235 142.994 44.4989 143.748 43.7476C144.502 42.9963 145.431 42.4473 146.446 42.2739C145.634 42.8807 144.995 43.5742 144.444 44.3255C143.893 45.0768 143.487 45.9436 143.11 46.7816C142.733 47.6485 142.413 48.5442 142.094 49.4689L141.137 52.3295Z" fill="#E29A60"/>
<path opacity="0.45" d="M142.994 55.7391C145.111 55.5658 145.808 54.8434 145.837 54.0632C144.067 54.9879 142.21 52.6762 143.574 50.3646C145.024 47.8796 145.72 43.9498 146.446 44.2677C147.142 44.5855 145.024 49.3244 144.879 49.6711C145.14 49.2955 149.898 41.985 146.997 42.0716C144.009 42.1583 141.514 48.1975 141.253 46.5504C141.05 45.3657 141.949 42.534 142.442 41.0603C140.992 42.8807 140.063 45.0479 140.063 45.0479L137.888 47.7062C137.859 47.7062 137.714 56.1437 142.994 55.7391Z" fill="black"/>
<path d="M133.768 30.1379L141.311 49.4111C141.311 49.4111 145.198 42.8229 145.808 38.4597C145.924 37.564 145.924 36.7549 145.692 36.0903C145.198 34.6456 144.328 33.1719 143.458 31.9294C142.065 29.9356 140.644 28.4908 140.644 28.4908L133.768 30.1379Z" fill="#733E58"/>
<path d="M142.355 36.3214C142.935 37.824 144.357 38.3441 145.808 38.4597C145.924 37.5639 145.924 36.7548 145.691 36.0903C145.198 34.6455 144.328 33.1718 143.458 31.9293C142.558 32.7384 141.514 34.1543 142.355 36.3214Z" fill="#844E6B"/>
<path d="M101.857 64.0321C99.9708 65.0145 99.0135 64.7544 98.5493 64.1187C97.882 63.1652 98.2592 61.3159 98.2592 61.3159C94.5168 61.1425 86.3938 55.768 89.0918 52.0694C90.3683 50.3068 92.6601 50.509 94.6618 51.2314C96.8667 52.0116 98.7524 53.3697 98.7524 53.3697L102.002 54.4966C102.002 54.4677 106.527 61.576 101.857 64.0321Z" fill="#FFCBA9"/>
<path d="M101.624 60.1312L99.3616 58.2241C98.6073 57.6173 97.8821 57.0105 97.0988 56.4903C96.3155 55.9702 95.5322 55.4501 94.6619 55.1034C93.7915 54.7566 92.8922 54.4966 91.8768 54.4099C92.8052 54.0054 93.9076 54.0053 94.923 54.2365C95.9674 54.4677 96.8957 54.9589 97.737 55.5368C98.5783 56.1147 99.3326 56.8082 99.9708 57.5884C100.667 58.3685 101.218 59.2065 101.624 60.1312Z" fill="#E29A60"/>
<path d="M101.857 64.032C99.9709 65.0145 99.0135 64.7544 98.5493 64.1187C100.522 63.9743 100.899 61.0269 98.5493 59.7555C96.0254 58.3975 93.3564 55.4501 92.9212 56.0858C92.4861 56.7215 96.7507 59.64 97.0698 59.8422C96.6636 59.64 88.8017 55.9702 91.2967 54.4966C93.8786 52.994 99.1876 56.7793 98.5203 55.2479C98.0561 54.1209 95.8223 52.2139 94.6329 51.2025C96.8377 51.9827 98.7234 53.3408 98.7234 53.3408L101.973 54.4677C102.002 54.4677 106.527 61.5759 101.857 64.032Z" fill="#FFB98E"/>
<path d="M122.802 44.9034L109.573 57.9352L104.206 60.3624L102.001 59.64L95.6191 52.0694C95.6191 52.0694 85.5524 40.5691 85.4364 27.7395C85.4364 27.7395 88.2504 21.3537 94.8359 20.429C94.8359 20.429 96.0253 1.53145 119.06 0C119.06 0 104.177 3.49634 100.145 12.714C100.145 12.714 113.258 -1.15581 128.459 3.46744C143.69 8.0907 149.811 24.301 157.412 25.2545C157.412 25.2545 149.695 31.0625 139.512 30.5135C129.33 29.9645 139.512 30.5135 139.512 30.5135L122.802 44.9034Z" fill="#733E58"/>
<path d="M99.5356 53.3408L104.816 59.4088L102.002 59.64C109.718 72.1806 124.891 74.9834 128.923 75.5035C129.562 75.5902 130.2 75.5324 130.838 75.3302C132.956 74.6367 135.103 73.8565 136.524 73.3075C137.627 72.874 138.526 72.0361 139.048 70.9092C139.947 69.0021 140.673 67.0372 141.282 65.1301C143.69 57.4728 144.705 52.5895 144.705 52.5895L140.615 45.1634L139.628 31.3803L139.57 30.5135C139.57 30.5135 129.039 32.7673 113.171 29.6755C108.964 28.8664 104.409 27.6528 99.5356 25.948C99.3035 26.2081 99.0714 26.497 98.8974 26.786C98.8393 26.8726 98.7813 26.9882 98.7233 27.0749C98.2881 27.7684 97.998 28.4908 97.795 29.1843C97.766 29.3288 97.7369 29.4443 97.7079 29.5888C97.6789 29.7044 97.6499 29.8489 97.6209 29.9644C97.5919 30.1378 97.5629 30.3112 97.5339 30.4846C97.5339 30.4846 97.5339 30.4846 97.5339 30.5135C97.2728 32.4206 97.6209 33.9231 97.6209 33.9231C101.131 41.7826 101.073 46.0592 100.145 48.3419C99.2455 50.5379 97.5629 50.9136 97.4758 50.9425L99.5356 53.3408Z" fill="#FFCBA9"/>
<path d="M116.681 59.7266C117.348 60.3334 118.015 60.9113 118.654 61.547L118.48 61.4604C119.437 61.5181 120.394 61.6048 121.352 61.6048C121.845 61.6337 122.309 61.6048 122.802 61.6337C123.295 61.6337 123.76 61.6048 124.253 61.6048C126.167 61.547 128.082 61.4026 129.968 61.1714C131.853 60.9402 133.739 60.5357 135.567 60.0734C137.424 59.6111 139.193 58.8887 141.021 58.1663L140.963 58.2241C141.253 57.9062 141.572 57.6173 141.862 57.2994C141.659 57.6751 141.456 58.0507 141.224 58.4264V58.4552L141.195 58.4841C140.789 58.7731 140.383 59.0332 139.976 59.2932L139.338 59.6977L138.671 60.0445C138.236 60.2757 137.801 60.5068 137.336 60.7091L135.944 61.2581C135.712 61.3448 135.48 61.4604 135.248 61.5181L134.522 61.7204C134.058 61.8649 133.565 62.0094 133.101 62.1249C132.144 62.3561 131.157 62.5584 130.171 62.674C128.198 62.934 126.225 63.0496 124.224 62.934C122.251 62.8473 120.278 62.5873 118.364 62.0383L118.247 62.0094L118.189 61.9516C117.667 61.2292 117.145 60.4779 116.681 59.7266Z" fill="#E29A60"/>
<path d="M116.42 60.6513C116.217 60.3912 116.217 60.1023 116.275 59.8711C116.362 59.611 116.536 59.3799 116.768 59.2354C117 59.0909 117.29 59.0331 117.522 59.062C117.783 59.0909 118.015 59.2065 118.218 59.4666C118.015 59.6977 117.841 59.8422 117.725 59.9578C117.58 60.0734 117.493 60.1601 117.406 60.2179C117.174 60.3334 116.942 60.3912 116.42 60.6513Z" fill="#E29A60"/>
<path opacity="0.45" d="M142.703 60.1023C142.703 60.189 142.674 60.2757 142.674 60.3624C142.674 60.2757 142.674 60.189 142.703 60.1023Z" fill="black"/>
<path d="M99.5356 53.3407L104.816 59.4088L102.002 59.6399C109.718 72.1805 124.717 74.1743 128.72 74.6944C129.359 74.7811 129.997 74.7233 130.635 74.521C132.753 73.8275 135.103 73.8564 136.524 73.3074C137.627 72.874 138.207 71.6315 138.729 70.5046C139.628 68.5975 140.412 67.066 141.021 65.1589C141.688 62.7028 142.326 60.6224 142.471 59.6688C141.804 63.483 138.091 70.389 138.091 70.389C136.205 69.4932 131.447 72.874 131.447 72.874C112.184 68.0196 102.582 48.0818 110.212 33.6919C110.676 32.7962 111.227 31.9871 111.778 31.2358C124.485 33.8942 136.379 31.9582 139.628 31.3514L139.57 30.4845C139.57 30.4845 129.039 32.7384 113.171 29.6466C108.964 28.8375 104.409 27.6239 99.5356 25.9191C99.3035 26.1791 99.0714 26.4681 98.8974 26.757C98.8393 26.8437 98.7813 26.9593 98.7233 27.046C98.2881 27.7395 97.998 28.4619 97.795 29.1553C97.766 29.2998 97.7369 29.4154 97.7079 29.5599C97.6789 29.6755 97.6499 29.8199 97.6209 29.9355C97.5919 30.1089 97.5629 30.2823 97.5339 30.4556C97.5339 30.4556 97.5339 30.4556 97.5339 30.4845C97.2728 32.3916 97.6209 33.8942 97.6209 33.8942C101.131 41.7537 101.073 46.0302 100.145 48.313C99.2455 50.509 97.5629 50.8846 97.4758 50.9135L99.5356 53.3407Z" fill="#FFB98E"/>
<path opacity="0.45" d="M135.248 45.1056C135.625 47.2727 136.756 48.8908 137.801 48.7175C138.845 48.5441 139.367 46.637 138.99 44.4699C138.613 42.3027 137.482 40.6846 136.437 40.8579C135.393 41.0313 134.871 42.9384 135.248 45.1056Z" fill="black"/>
<path d="M137.742 48.2428C138.468 48.1161 138.85 46.841 138.596 45.3949C138.341 43.9487 137.546 42.8791 136.82 43.0058C136.094 43.1325 135.712 44.4076 135.967 45.8537C136.221 47.2999 137.016 48.3695 137.742 48.2428Z" fill="#733E58"/>
<path d="M137.046 44.3542C137.133 44.8166 137.394 45.1344 137.626 45.1055C137.859 45.0766 138.004 44.6721 137.917 44.2098C137.83 43.7474 137.568 43.4296 137.336 43.4585C137.104 43.5163 136.959 43.9208 137.046 44.3542Z" fill="white"/>
<path d="M136.785 45.4812C136.843 45.7413 137.017 45.9435 137.162 45.9146C137.307 45.8857 137.365 45.6257 137.307 45.3656C137.249 45.1056 137.075 44.9033 136.93 44.9322C136.785 44.9611 136.727 45.1923 136.785 45.4812Z" fill="white"/>
<path opacity="0.45" d="M120.133 47.215C120.742 50.0757 122.367 52.185 123.73 51.8961C125.094 51.6071 125.703 49.0354 125.094 46.1748C124.485 43.3142 122.86 41.2048 121.497 41.4938C120.104 41.7538 119.495 44.3255 120.133 47.215Z" fill="black"/>
<path d="M121.09 48.1686C121.497 50.0757 122.628 51.4627 123.585 51.2604C124.543 51.0581 125.007 49.3244 124.601 47.4173C124.195 45.5102 123.063 44.1232 122.106 44.3255C121.119 44.5278 120.655 46.2326 121.09 48.1686Z" fill="#733E58"/>
<path d="M122.454 46.117C122.57 46.7238 122.947 47.1572 123.266 47.0705C123.585 47.0127 123.73 46.4637 123.614 45.8569C123.498 45.2501 123.121 44.8167 122.802 44.9034C122.483 44.9901 122.338 45.5391 122.454 46.117Z" fill="white"/>
<path d="M122.193 47.6196C122.309 47.9663 122.541 48.2264 122.715 48.1686C122.918 48.1108 122.976 47.7641 122.889 47.4173C122.773 47.0706 122.541 46.8105 122.367 46.8683C122.164 46.9261 122.077 47.2439 122.193 47.6196Z" fill="white"/>
<path d="M130.606 36.1769C130.664 36.148 130.751 36.148 130.809 36.1191C130.925 36.0902 131.041 36.0613 131.157 36.0613C131.447 36.0035 131.737 35.9746 132.028 35.9746C132.173 35.9746 132.347 35.9457 132.492 35.9457C132.956 35.9457 133.42 35.9746 133.855 36.0035C136.669 36.2925 139.222 37.3616 139.222 37.3616C140.18 35.3967 136.988 34.5877 136.988 34.5877C137.83 34.6454 139.048 35.4834 139.106 35.5412C137.946 34.4143 136.814 33.7786 135.828 33.4318C135.132 33.1718 134.493 33.0851 134 33.0273C133.623 32.9984 133.304 33.0273 133.13 33.0273C132.956 33.0273 132.869 33.0562 132.869 33.0562L132.318 33.8075L132.55 33.0273C132.318 33.1429 132.115 33.3163 131.94 33.4896C131.331 34.1253 131.128 34.9922 131.07 35.1078C131.244 33.663 131.911 32.9984 131.911 32.9984C131.824 33.0562 131.708 33.114 131.621 33.1718C130.519 34.0675 130.606 36.1769 130.606 36.1769Z" fill="#733E58"/>
<path d="M132.492 35.9747C132.956 35.9747 133.42 36.0036 133.855 36.0325C134.348 34.5588 135.19 33.8075 135.857 33.4319C135.161 33.1718 134.522 33.0851 134.029 33.0273C132.782 34.1254 132.55 35.3679 132.492 35.9747Z" fill="#844E6B"/>
<path d="M131.157 36.0903C131.447 36.0325 131.737 36.0036 132.027 36.0036C132.143 34.4433 132.666 33.5475 133.13 33.0563C132.956 33.0563 132.869 33.0852 132.869 33.0852L132.318 33.8364L132.55 33.0563C132.317 33.1719 132.114 33.3452 131.94 33.5186C131.273 34.501 131.157 35.5124 131.157 36.0903Z" fill="#844E6B"/>
<path d="M130.606 36.1775C130.664 36.1486 130.751 36.1486 130.809 36.1197C130.838 34.646 131.273 33.7214 131.65 33.1724C130.519 34.0681 130.606 36.1775 130.606 36.1775Z" fill="#844E6B"/>
<path d="M123.382 36.3503C123.295 36.3792 123.208 36.3792 123.121 36.4081C122.976 36.437 122.86 36.4659 122.715 36.5237C122.367 36.6103 122.048 36.7548 121.7 36.8704C121.526 36.9282 121.352 37.0149 121.177 37.1016C120.684 37.3327 120.191 37.5928 119.727 37.8817C116.826 39.6443 114.621 42.1293 114.621 42.1293C112.561 40.4823 115.607 37.9684 115.607 37.9684C114.737 38.4596 113.838 40.02 113.78 40.1067C114.447 38.2863 115.346 36.986 116.217 36.1191C116.855 35.4834 117.493 35.0211 118.015 34.7321C118.421 34.501 118.741 34.3565 118.973 34.2698C119.176 34.1831 119.263 34.1831 119.263 34.1831L120.249 34.7032L119.582 33.952C119.901 33.952 120.22 34.0098 120.51 34.1253C121.497 34.501 122.193 35.31 122.28 35.4545C121.352 33.9809 120.249 33.6052 120.249 33.6052C120.394 33.6052 120.51 33.6341 120.655 33.663C122.367 34.0098 123.382 36.3503 123.382 36.3503Z" fill="#733E58"/>
<path d="M121.207 37.1016C120.713 37.3327 120.22 37.5928 119.756 37.8817C118.48 36.5526 117.174 36.1769 116.246 36.0902C116.884 35.4545 117.522 34.9922 118.044 34.7032C119.959 35.2234 120.858 36.4659 121.207 37.1016Z" fill="#844E6B"/>
<path d="M122.715 36.5237C122.367 36.6104 122.048 36.7548 121.7 36.8704C120.771 35.2234 119.727 34.5299 118.973 34.2409C119.176 34.1543 119.263 34.1543 119.263 34.1543L120.249 34.6744L119.582 33.9231C119.901 33.9231 120.22 33.9809 120.51 34.0965C121.787 34.8477 122.425 35.9169 122.715 36.5237Z" fill="#844E6B"/>
<path d="M123.382 36.3502C123.295 36.3791 123.208 36.3791 123.121 36.408C122.309 34.8188 121.352 34.0386 120.684 33.663C122.367 34.0097 123.382 36.3502 123.382 36.3502Z" fill="#844E6B"/>
<path d="M134.291 51.376C134.291 51.376 130.142 52.5896 130.519 54.3233C130.896 56.057 135.19 55.8259 137.018 54.2077C138.845 52.5896 134.291 51.376 134.291 51.376Z" fill="#FFB98E"/>
<path d="M136.234 63.512C136.234 63.512 139.657 67.2395 137.917 72.1806C137.917 72.1806 136.524 75.5902 131.65 75.1279C131.65 75.1279 134.755 70.3313 132.927 64.61L136.234 63.512Z" fill="#733E58"/>
<path d="M130.287 64.5522C130.954 64.4655 131.563 64.3499 132.172 64.2055C132.782 64.0899 133.362 63.9454 133.942 63.8009L135.712 63.3386C136.321 63.1941 136.93 63.0208 137.597 62.9341C137.365 63.1941 137.133 63.4253 136.872 63.6276C136.611 63.8298 136.35 64.0321 136.031 64.1766C135.451 64.4944 134.841 64.7545 134.174 64.899C133.536 65.0434 132.84 65.1301 132.172 65.0723C131.534 65.0723 130.867 64.9567 130.287 64.5522Z" fill="#E29A60"/>
<path d="M136.582 65.2457C136.582 65.2457 138.99 69.4356 136.843 72.7874C136.843 72.7874 137.279 69.5511 136.437 68.222C136.437 68.222 137.017 72.3829 134.755 74.0588C134.755 74.0588 135.393 70.9092 134.494 67.4707L135.364 67.6151C135.364 67.6151 135.741 69.2333 135.567 70.0713C135.567 70.0713 136.205 67.6729 135.509 65.8236C135.509 65.8236 136.234 66.546 136.611 67.3262C136.64 67.2684 136.843 66.2282 136.582 65.2457Z" fill="#844E6B"/>
<path d="M98.172 24.3877C98.172 24.3877 102.611 20.5446 113.2 23.752C123.788 26.9594 142.123 28.8376 153.495 24.7922C153.495 24.7922 132.172 24.1854 119.785 19.1288C119.785 19.1288 140.818 18.3486 147.751 22.654C147.751 22.654 129.562 -11.5581 101.972 12.6562C101.972 12.6562 121.003 1.84934 135.335 15.3435C135.335 15.3435 105.715 5.60573 96.8955 21.4404C96.8955 21.4404 102.93 15.6613 114.07 16.4993C114.128 16.4704 103.307 17.3372 98.172 24.3877Z" fill="#844E6B"/>
<path d="M97.0698 26.3815C97.0698 26.3815 94.3718 32.5651 95.039 36.2926C95.039 36.2926 92.312 33.0274 93.5305 27.7685C93.5305 27.7685 91.2386 30.0223 91.6158 33.9521C91.6158 33.9521 88.6277 32.9696 86.0167 28.722C86.0167 28.722 89.382 22.0472 95.5612 23.1452C95.5612 23.1452 90.8325 24.1565 89.8751 28.6931C89.8461 28.722 92.3701 24.6478 97.0698 26.3815Z" fill="#844E6B"/>
<path d="M95.7932 50.9136L97.0117 52.3294L104.003 47.4172L104.874 46.8104L104.612 45.7991L104.061 43.8053L96.3444 50.4512L95.7932 50.9136Z" fill="#844E6B"/>
<path d="M95.7932 50.9136L97.0407 52.3294L104.032 47.4172L104.903 46.8104L104.612 45.7991L99.4485 49.8444C99.4485 49.8444 97.7949 50.4801 96.3444 50.4512L95.7932 50.9136Z" fill="#733E58"/>
<path d="M127.27 45.568C127.444 46.1748 127.618 46.6082 127.821 46.5215C128.401 46.2615 128.198 44.441 128.198 44.441C129.01 43.4875 130.403 44.0076 130.403 44.0076C130.693 45.3079 131.505 45.7413 131.505 45.7413L131.012 43.0541L130.78 41.8116C128.575 41.2914 126.719 42.534 126.719 42.534C126.719 42.534 126.951 44.3833 127.27 45.568Z" fill="#473C5B"/>
<path d="M127.27 45.5679C127.444 46.1747 127.618 46.6081 127.821 46.5214C128.401 46.2614 128.198 44.441 128.198 44.441C129.01 43.4875 130.403 44.0076 130.403 44.0076C130.693 45.3078 131.505 45.7413 131.505 45.7413L131.012 43.054C128.836 42.5917 127.009 43.8342 127.009 43.8342C127.009 43.8342 127.125 44.6722 127.27 45.5679Z" fill="#733E58"/>
<path d="M144.502 39.9622L145.372 39.7888C145.808 39.7022 146.04 39.0954 145.924 38.4308L145.808 37.8529C145.662 37.1883 145.198 36.697 144.763 36.7837L143.893 36.9282L144.502 39.9622Z" fill="#342B42"/>
<path d="M130.432 42.0427C130.838 43.8342 131.36 45.5968 131.998 47.3016C132.085 47.5039 132.173 47.7351 132.26 47.9373C133.42 50.509 135.596 51.9538 137.627 51.5204C139.106 51.2025 140.47 50.8269 141.775 50.3645C143.719 49.6711 144.966 47.3016 144.879 44.441C144.821 42.1005 144.589 39.6444 144.183 37.0438C144.154 36.7548 143.951 36.5237 143.748 36.5237C143.371 36.4948 143.023 36.4659 142.645 36.4659C139.309 36.3214 135.77 36.8704 132.027 38.0551C130.693 38.4597 129.997 40.1934 130.432 42.0427ZM133.623 47.9662C133.391 47.5906 133.217 47.1861 133.043 46.7526C132.521 45.3079 132.085 43.8053 131.737 42.3027C131.389 40.7424 131.969 39.2976 133.072 38.922C136.35 37.8529 139.454 37.3616 142.413 37.5061C142.616 37.5061 142.819 37.535 143.023 37.535C143.197 37.535 143.342 37.7373 143.4 37.9973C143.748 40.2223 143.951 42.3605 143.98 44.3543C144.038 46.7815 142.994 48.8331 141.311 49.3821C140.179 49.7577 139.019 50.0756 137.772 50.3356C136.234 50.6535 134.638 49.6999 133.623 47.9662Z" fill="#342B42"/>
<path d="M131.418 42.2738C131.766 43.8342 132.231 45.3945 132.782 46.8971C133.71 49.4688 135.77 51.0291 137.714 50.6246C139.019 50.3645 140.237 50.0467 141.398 49.6421C143.139 49.0353 144.241 46.926 144.183 44.4121C144.125 42.3316 143.922 40.1356 143.574 37.795C143.545 37.535 143.371 37.3327 143.197 37.3327C139.918 37.0727 136.466 37.5639 132.84 38.7486C131.679 39.1242 131.07 40.6268 131.418 42.2738ZM131.737 42.3316C131.389 40.7713 131.969 39.3265 133.072 38.9509C136.553 37.795 139.86 37.3327 143.023 37.5639C143.197 37.5639 143.342 37.7661 143.4 38.0262C143.748 40.2511 143.951 42.3894 143.98 44.3832C144.038 46.8104 142.993 48.862 141.311 49.411C140.179 49.7866 139.019 50.1045 137.772 50.3645C135.915 50.7402 133.942 49.2376 133.043 46.7815C132.521 45.3078 132.085 43.8342 131.737 42.3316Z" fill="#733E58"/>
<mask id="mask0" mask-type="alpha" maskUnits="userSpaceOnUse" x="131" y="37" width="13" height="14">
<path d="M137.772 50.3645C139.019 50.1045 140.208 49.8155 141.311 49.411C142.993 48.8331 144.067 46.8104 143.98 44.3832C143.922 42.3894 143.719 40.2512 143.4 38.0262C143.371 37.7951 143.197 37.5928 143.022 37.5639C139.86 37.3327 136.553 37.7951 133.072 38.9509C131.969 39.3265 131.389 40.7713 131.737 42.3316C132.085 43.8342 132.521 45.3078 133.043 46.7815C133.942 49.2376 135.915 50.7402 137.772 50.3645Z" fill="url(#paint0_linear)"/>
</mask>
<g mask="url(#mask0)">
<path opacity="0.5" d="M137.772 50.3645C139.019 50.1045 140.208 49.8155 141.311 49.411C142.993 48.8331 144.067 46.8104 143.98 44.3832C143.922 42.3894 143.719 40.2512 143.4 38.0262C143.371 37.7951 143.197 37.5928 143.022 37.5639C139.86 37.3327 136.553 37.7951 133.072 38.9509C131.969 39.3265 131.389 40.7713 131.737 42.3316C132.085 43.8342 132.521 45.3078 133.043 46.7815C133.942 49.2376 135.915 50.7402 137.772 50.3645Z" fill="url(#paint1_linear)"/>
<path d="M130.432 42.0411C130.838 43.8326 131.36 45.5952 131.998 47.3C132.085 47.5023 132.173 47.7334 132.26 47.9357C132.753 47.9935 133.217 47.9935 133.652 47.9646C133.42 47.589 133.246 47.1844 133.072 46.751C132.55 45.3062 132.115 43.8037 131.766 42.3011C131.418 40.7408 131.998 39.296 133.101 38.9204C136.379 37.8512 139.483 37.36 142.442 37.5045C142.529 37.1 142.616 36.7243 142.645 36.4354C139.309 36.2909 135.77 36.8399 132.027 38.0246C130.693 38.458 129.997 40.1918 130.432 42.0411Z" fill="#473C5B"/>
</g>
<path d="M107.63 46.8394L105.918 47.1572C105.019 47.3306 104.119 46.6949 103.916 45.7414L103.742 44.9034C103.539 43.9499 104.119 43.0541 105.019 42.9385L106.73 42.6785L107.63 46.8394Z" fill="#342B42"/>
<path d="M123.904 39.2399C118.915 39.2399 113.78 39.9045 108.529 41.4648C107.891 41.6382 107.252 41.8405 106.614 42.0716C106.266 42.1872 106.092 42.5628 106.208 42.9674C107.281 46.4926 108.529 49.7289 109.979 52.6184C111.691 56.0859 115.114 57.8485 118.334 57.0972C120.307 56.6349 122.251 56.057 124.136 55.3924C126.573 54.5255 128.111 51.9249 128.14 48.9198C128.14 48.6886 128.14 48.4575 128.111 48.2263C127.966 46.3192 127.734 44.441 127.357 42.6206C126.98 40.6846 125.5 39.2399 123.904 39.2399ZM123.353 54.3232C121.729 54.8723 120.104 55.3346 118.392 55.7102C115.694 56.317 112.822 54.7856 111.372 51.896C110.153 49.4399 109.109 46.7238 108.21 43.7764C108.123 43.4586 108.268 43.1118 108.529 43.0252C108.877 42.9096 109.196 42.794 109.544 42.6784C114.128 41.2048 118.682 40.5402 123.121 40.4824C124.514 40.4824 125.79 41.696 126.109 43.343C126.428 44.9323 126.631 46.5504 126.747 48.1685C126.776 48.6598 126.776 49.151 126.718 49.6133C126.515 51.8093 125.239 53.6586 123.353 54.3232Z" fill="#342B42"/>
<path d="M123.353 40.1934C118.364 40.2223 113.287 41.0024 108.123 42.7939C107.833 42.9095 107.659 43.2274 107.775 43.5741C108.703 46.6659 109.805 49.4977 111.082 52.0404C112.59 55.0745 115.578 56.6637 118.393 56.028C120.162 55.6235 121.874 55.1322 123.527 54.5543C125.877 53.7453 127.328 51.1158 127.125 48.1974C127.009 46.4925 126.777 44.8166 126.457 43.1985C126.109 41.4648 124.804 40.1934 123.353 40.1934ZM126.835 48.1974C127.038 51.0002 125.645 53.543 123.382 54.3232C121.758 54.8722 120.133 55.3345 118.422 55.7102C115.724 56.317 112.851 54.7855 111.401 51.896C110.183 49.4399 109.138 46.7237 108.239 43.7764C108.152 43.4585 108.297 43.1118 108.558 43.0251C113.49 41.3203 118.393 40.5401 123.15 40.5112C124.543 40.5112 125.819 41.7248 126.138 43.3718C126.486 44.9322 126.719 46.5503 126.835 48.1974Z" fill="#733E58"/>
<mask id="mask1" mask-type="alpha" maskUnits="userSpaceOnUse" x="108" y="40" width="19" height="16">
<path d="M123.353 54.3232C121.729 54.8722 120.104 55.3345 118.392 55.7102C115.694 56.317 112.822 54.7855 111.372 51.896C110.153 49.4399 109.109 46.7237 108.21 43.7764C108.123 43.4586 108.268 43.1407 108.529 43.0251C113.461 41.3203 118.363 40.5401 123.121 40.5112C124.514 40.5112 125.79 41.7248 126.109 43.3719C126.428 44.9611 126.631 46.5793 126.747 48.1974C127.009 51.0002 125.616 53.543 123.353 54.3232Z" fill="url(#paint2_linear)"/>
</mask>
<g mask="url(#mask1)">
<path opacity="0.5" d="M123.353 54.3232C121.729 54.8722 120.104 55.3345 118.392 55.7102C115.694 56.317 112.822 54.7855 111.372 51.896C110.153 49.4399 109.109 46.7237 108.21 43.7764C108.123 43.4586 108.268 43.1407 108.529 43.0251C113.461 41.3203 118.363 40.5401 123.121 40.5112C124.514 40.5112 125.79 41.7248 126.109 43.3719C126.428 44.9611 126.631 46.5793 126.747 48.1974C127.009 51.0002 125.616 53.543 123.353 54.3232Z" fill="url(#paint3_linear)"/>
<path d="M127.357 42.5917C127.734 44.441 127.995 46.2903 128.111 48.1974C128.14 48.4286 128.14 48.6598 128.14 48.8909C127.676 49.1799 127.241 49.411 126.777 49.6133C126.835 49.151 126.835 48.6598 126.806 48.1685C126.69 46.5215 126.487 44.9323 126.167 43.343C125.848 41.696 124.572 40.4824 123.179 40.4824C118.712 40.5113 114.186 41.2048 109.602 42.6784C109.167 42.2161 108.819 41.7827 108.529 41.4648C113.78 39.9045 118.915 39.2399 123.905 39.2399C125.5 39.2399 126.98 40.6846 127.357 42.5917Z" fill="#473C5B"/>
</g>
<path d="M125.674 62.0961C125.674 62.0961 129.213 64.321 134.522 63.3097C139.831 62.2983 140.354 58.7153 140.354 58.7153L139.425 58.5997L133.362 57.8773L127.125 61.3159L125.674 62.0961Z" fill="#121116"/>
<path d="M126.022 61.5181C127.792 62.0094 130.664 62.4139 134.261 61.7204C137.859 61.0269 139.628 59.4955 140.47 58.3685L133.42 57.8773L126.022 61.5181Z" fill="white"/>
<path d="M120.655 61.316C121.12 62.4429 122.831 63.512 127.067 63.0497C131.418 62.5874 133.217 60.6514 133.913 58.9176C135.19 60.2757 137.511 61.5182 141.775 60.5069C149.724 58.5998 146.997 54.5544 145.576 55.0457C144.212 55.508 145.314 56.2304 145.372 56.2593C145.314 56.2015 144.908 55.7103 145.663 55.508C146.475 55.3057 146.736 56.2593 146.62 56.8661C146.504 57.4729 144.85 58.542 140.992 57.0105C137.133 55.4502 135.654 55.5369 135.654 55.5369C135.277 55.8258 134.784 55.9992 134.29 56.1437C133.971 56.2304 133.652 56.2882 133.362 56.346C133.101 56.4037 132.782 56.4326 132.463 56.4615C131.97 56.4904 131.476 56.4904 131.012 56.3748C130.983 56.3748 130.954 56.346 130.954 56.346C130.954 56.346 129.533 56.7794 126.458 59.5244C125.355 60.5069 124.398 61.0848 123.614 61.3737C122.193 61.9228 121.323 61.6338 121.12 61.2582C121.062 61.1426 121.004 61.027 120.974 60.8825C120.829 60.4202 120.887 59.8712 121.352 59.6978C121.41 59.6689 121.468 59.6689 121.555 59.64C122.338 59.5533 122.106 60.1601 122.106 60.2179C122.164 60.1312 122.947 59.1199 121.497 59.1199C121.439 59.1199 121.41 59.1199 121.352 59.1199C120.8 59.3222 120.249 60.3335 120.655 61.316Z" fill="#733E58"/>
<path d="M124.775 61.836C127.328 62.125 132.231 60.0734 132.463 58.4264C132.695 56.9527 131.389 56.4326 131.128 56.3459C131.099 56.3459 131.07 56.317 131.07 56.317C131.07 56.317 129.649 56.7504 126.574 59.4955C125.471 60.4779 124.514 61.0558 123.73 61.3448C126.196 61.4026 130.809 59.0043 130.809 59.0043C128.836 61.2003 124.775 61.836 124.775 61.836Z" fill="#844E6B"/>
<path d="M134.668 57.5017C134.668 57.5017 136.901 59.6978 143.342 58.8309C143.342 58.8309 140.876 59.9 137.801 59.2643C137.801 59.2643 138.584 59.9289 140.47 59.8133C140.499 59.8133 134.987 61.6626 134.668 57.5017Z" fill="#844E6B"/>
<path d="M135.509 57.0395C135.509 57.0395 140.267 57.6463 142.413 58.5132C142.413 58.5132 138.903 55.8836 135.509 57.0395Z" fill="#844E6B"/>
<path d="M133.13 49.7578C133.623 50.2201 134.087 50.7114 134.523 51.1737L134.378 51.0581C134.9 51.1737 135.451 51.2604 135.973 51.4048L136.379 51.4915C136.495 51.5204 136.727 51.5782 136.872 51.6649C137.192 51.8383 137.453 52.0983 137.627 52.4162C138.004 53.0519 137.946 53.8899 137.511 54.5255C137.163 54.9879 136.756 55.4213 136.292 55.7681C135.364 56.5193 134.174 56.895 133.014 56.895C131.854 56.8661 130.751 56.5482 129.823 55.9992C130.896 56.1437 131.97 56.2304 132.956 56.057C133.449 55.9703 133.913 55.8258 134.378 55.6525C134.813 55.4502 135.219 55.1901 135.596 54.9012C135.973 54.5833 136.292 54.2366 136.611 53.861C136.814 53.6009 136.843 53.2542 136.698 52.9074C136.64 52.7629 136.524 52.6185 136.379 52.5029C136.292 52.4451 136.263 52.4162 136.118 52.3584L135.741 52.2139C135.248 52.0405 134.755 51.8094 134.232 51.6071L134.116 51.5493L134.087 51.4915C133.71 50.9714 133.391 50.3935 133.13 49.7578Z" fill="#E29A60"/>
<defs>
<linearGradient id="paint0_linear" x1="128.263" y1="24.9547" x2="142.751" y2="50.6119" gradientUnits="userSpaceOnUse">
<stop stop-color="white"/>
<stop offset="1"/>
</linearGradient>
<linearGradient id="paint1_linear" x1="128.263" y1="24.9547" x2="142.751" y2="50.6119" gradientUnits="userSpaceOnUse">
<stop stop-color="white"/>
<stop offset="1" stop-color="white"/>
</linearGradient>
<linearGradient id="paint2_linear" x1="119.764" y1="22.6916" x2="116.463" y2="57.838" gradientUnits="userSpaceOnUse">
<stop stop-color="white"/>
<stop offset="1"/>
</linearGradient>
<linearGradient id="paint3_linear" x1="119.764" y1="22.6916" x2="116.463" y2="57.838" gradientUnits="userSpaceOnUse">
<stop stop-color="white"/>
<stop offset="1" stop-color="white"/>
</linearGradient>
</defs>
</svg>
